<mxfile host="65bd71144e">
    <diagram id="1Nxnw_pTwfrylxD72G_A" name="Page-1">
        <mxGraphModel dx="459" dy="350" grid="1" gridSize="10" guides="1" tooltips="1" connect="1" arrows="1" fold="1" page="1" pageScale="1" pageWidth="850" pageHeight="1100" math="0" shadow="0">
            <root>
                <mxCell id="0"/>
                <mxCell id="1" parent="0"/>
                <mxCell id="3" style="edgeStyle=none;html=1;" edge="1" parent="1" source="2">
                    <mxGeometry relative="1" as="geometry">
                        <mxPoint x="250" y="880" as="targetPoint"/>
                    </mxGeometry>
                </mxCell>
                <object label="" id="2">
                    <mxCell style="shape=image;verticalLabelPosition=bottom;labelBackgroundColor=default;verticalAlign=top;aspect=fixed;imageAspect=0;image=data:image/png,iVBORw0KGgoAAAANSUhEUgAAAcgAAAM7CAMAAAD55vBGAAAC/VBMVEX///8AAAD//8D/AADl5eXf39+AgIDU1NTz8/T//fcbGxv1///q6epAQD9PT08NDQ3q/f/6/Ppra2r29vbP+P4hISCsqqtiY2Lx8PD//Na/v8BVU1b/8O//f3+2trb//u/a2dqlqKeQjo+ZmZmc1PbMy8taW1nP0c9vcHD/EA+fn57616SJiYovLy/GxcWUlZX/YF80NDSvsLH/Pz28pqI5OTn97tP+989IRkdSAADX+/739//R7f3/4eGq0OqgSU2koqN7e3x0dHT005QoKCippr67vLmkdaT/np6EhITl+v+SzO///+X12MD/wMDVwr/PwKycnJ0XFxdGjszsz6WRvt3Inod4eHj/UU4vAAD99uXWmVfD6/zh4eGpu8G/2fO/0OnS89O8tNKIm8//zZr/MS7t7O3Ro5HDtcHYpU+owOBNmdGTk6jgu4HQ2+6msdH95LW+uaTr7srT1rpLLZkTExNeptjl1s7Xp3NTTHHUtb2+qbWokpLw693Fv9L+68PcvqQGRqSqo4e6k3Pm7fy5wtdzp9XSraZxT1BRZ6LCjloAAEv/0dCZpMSeo7OqlaVSSp9zYUOl09hwj8q6ycG+tYb/Ih+q1/nZ6/W+z9CNp7yQpZ/hxpWiUGLNj0O/3drU5NDl07fpxobp+dWQq9Cqz8bN06DTspNBAFfZ+ezjxLmLjrV2dZzJxZPCBwe05vt0tuR0n6iobXWrc1PvBATz07PMlnShkXTM6+rH6rdPcbeVcJ0AMYzN0N7u2suFj5/mtF3t/eutuqJXco4AAGmPdVmUW49QaH2WvrsyfLn/cHDuxG3/fmGJUVGOKE2nRAD0/r9voL9ygrb/sLAAZq+eipz/kZD/nndXPRpzDwBZjaX87p9rjYR0BUK3bzKTLwCOAACTW3KNeHFBAC/q6LEAAC/x29caAI10V3OGTADbAAAAg8xzVp+Rp4AvT4D/imqnjVOpw5D/alGgAAAdTFtUX23vRESiSy/+tokANk6xZQD/h4ZGP3jRhwAARy8JHlm+AAA7cElEQVR42uzda0hTYRjA8WdQ1OHUadVazoVrsS60KIg1aZlZo4SpaDQXzOW8hJamLg2z1dJcuTRM7UKpZRcvZRdSQw3tYtnFkAqloKL71cDCD0UEfejoqpma1mx5jnt+sYNffKvz593OeWQOEEIIIYQQQgghhNDgQPi7bgUQ+buq6IerB4Dc1XUbaF23kYDYxF1ISaxH+kGVAQRRVDappIQ8QGwi2E5JrEf6Qe0G4ixFpZNSagOGZJdfQ2ZzBdsxJCt1DinMEfIM1BQMyUadQ25IpSQxwlkYko1+CZlANWVsKMGQbOTeOWToLeGUmiMYko1EC6gaLiTR4eiQpfQla9qrjpBCvUtEhAsg1sigKOEUispW0SEVSRQlMXSEbIc3k2xCVFG0egXQIXlSul17yEqqHT6/sot2xYrhgBBCCCGEEEIIIYQQQgghhBBCCCGEEEIIfcfpB0DMYX8NDMkoGHKQ6FpDPSlPG4sh2adLDUE4zI8PkWXKJ0Udyy+clCefHpUya3qR3MsTQzJb95Da+D38NfKlcRavw/rIPeIiY6H+REbeSRJDMlrXGprZtYVXymsTxGtkqcX6yNT8k0aT/kSKOA53pEOM4thtVK8hYSx0IADmgQ2Br5E2zLjYBI5TX7Vy+sEh60BXpgswHEM6egc4fp3k9L0Nuy9uE62KvRhncg2Ru132z3UtNXpgSJaFVPqAPFxzv4Eqyrhxuqk25f7D5tT37z+kk32FtNtIDOmIdXxv5RSHn81pGFNjFl7ZlZU0/mGRZe3sDUWO25GAIR2zDgntiI4vbDAk60LaYMj/HfJAOhd6Q5h3/5+QvvxYAOICGPQAoq0Y8m9DSq2dUhT04Y21KVGhA5ukwE7f6qiBgBHAUB5S6XUuTPbOZxWpfhjiJ7sUR49XMeSfhsz4ygPa+nj+mtKnPsn39HKvkvOlsp0q+aY4QpbJ9V2QTjp8R6a8DATBoc0HrxRt3Cf1ARCEyHZqFJb28SqG/LOQ7jUxZaLFsjNVp6PVZVXnnh8+WBKd3JwctdqngmfZm3ggcWVaxhm/4EzSoSFF3lyQ526OFHuuule9z58UZDYmBpVnqsVxA7gjiWQRWLEh5NH01HTBmmqd5rREEK4J3ZDrlSJxD1c3mT29SW1QXkBURnlboiH/uup36xAR9GHev7nYsa1DyBQaHQBh3zlxIX9fZ7gL+UcVDcrkxjotWDk+pO/ZMfUKiwKIjSR0eMP9q5BEBRcyzgDMiwygQx4tM+c3q+mQRx+2Rcc8yn51qnpXM4iuc4HseZ0JJBzI5A7bH2ZyLd0q8vbQmmaqLsYO+FXricLW7rWkidJEAN9tVTzokCSBXogaGxvrgpIJ+v/IhZ64TCD/5T86aB8YaoLqM0dv1m6KAr9Jh5762HPb0P0HD9YHQfa6jtYcSPrNDihfExZ2xAPAuJEvK+Wf2qQYwJCGQPpgOf36jHlammB7Tn3OMqJCAe7brwUWXG27mvCyKW71R6FnJE/a9OyuX8tCHfyGtq5u9eqgghQA05EaWM8lIraaVDAPwBTre/1VDRGx/kjuViDB97pKu7//IYkFPHrDVJ2J8fE+65mxq/XyYrPuf95HntCBn1vC0uAwGb90P1jUiZHiXVmLuQMX0pS0ZT+AJjTbcP7wrdBmopakzxCAfPPpaCn9Z2Wae7hG575bw1u5LEjyJDBmGfRMrmysK6hbXXARoLKkRhNce6DpbEOzbwj4LjbvakmoKUgzqvPMufsExS2HL2l8+r8jM3SQXGNRSX28DxbL9qRBhIb3/wcCBHxn8fBXDexAwL9tSzCXDrlOumXoxsJwwtsaMmaZOk0ZrYxeKaFD8gQdIQskdwKPREHPDHX0U6uywAQAfofDFwRnJSgiFd5curBXm8TbPdzINR5RSBv2GTy9lQ/XRvU/ZLIwf4Mu6VGLwvtY+XWF+cXuo2V2hxTc1glOkSyf7Eij6UNk6eczByelfw9ZwQP1h+oP8cfjj5fQIVd/3O559ENOovKmsv6WJ/SMkDfSz63WkKGtx8SZfu0hC+PAcMpcVhHauoprVNfXhj6/5llx6F6qvt8haS4dW8K9lSRsV312hpy7RbBOW33JwzIpT1YEx07pWBjSZuwvYTp/TdKPH1/18hp5VBlDdP92ont08h/efmj3938nuWe3NWSrT72Lflr8oPhxyY7UtyR0cMoRnSi5UzIW3Ef+EpLekzHp76IPKg4qFpScX5vXR8h+wBGdQ0OSdVtivuRYQ4Y+vh8N3+GIjlUhu5oHnTnfiO4ntof8m3WYNaJjOKYF4PR06UZw4bvh+INl9oScQIJp6mQP+QVp3s5YrSvXP+REQJFq/vpto4dtNV6mp6+xxMT26SuGZHbI9llr5NTgsIrU4j1Fxo2X750LM8bn8hcvjp9eftKvffoawM/qmL5iSEaHbJ+1+hfmbpaJDwfrTwSIZ4vjjIVRSZJ7/ISlcZXn6OlrYbZ1+oohmR3yB/LnpYrcQ7Tx8mYSCKAPAJWe/ip8jWTdWwYYNaJDvXGeEZ0T4YDdnHtExzQc+zn3iG7QcrYR3aDlbCO6QQuvWgcJDDlIcPqGv4sOIYQQQgghhBBCCCGEEEIIIYQQQgghhBBCCCGEEEIIIYQQcpiRHPuMA8QkHKf6hNnBy+6O+A5qRhln7/MqvhWeWezekE4ektMP/2odDMmgX+ph1zoju394OsFZkquPAK1JjyEdGtJ2/vsbkl5m3MhuF5sEZ20xP9cteHKLDkM6MqTt/PcV0rB8NzEEXFyGTxgBJu7YCKD32XAjt8up7x4yIJg/e4nXEnEUhnRcSNsZ6ztklYJIys9rWfSiOn9G+cnn00telrdmZan62JHAcXNzm+1Gm4whmbEjK2c0xzwK3smXmR+JF4VnrS/5VFzkb/HothBe7DA8JBBgRcfrBENasSjkn/zlGHLAQtI40D0kNdQOczi0ORiSSbcfc0bbDUM6JKTvNuiRPITZH0w6mEJ+Y+/eY9qq4jiA/07C2l7bjpat7aUsfcCgBmgJpOCA2tGF1lAhVMcwI9AyNDxqZTKczAF7KExns+Emhocv0OlUMD6W6dxD4zYf/5hlZibOGKdLTDRGY6LGZImJt1THBqOP061rL79PSBhl5+Te+73nnh8nvbfVfVm5Wb43z4pZWXVfI2WQ6VMAkPc2sFwvKwaEclGJwSnhfspbh0HGS/XFr8mf028+Lf/jl/TSlZRB1uVbHre2TdW5DXtP9LoGJy9OqJXdZndn29THFZZwQaZPaU90rujpdQKUjLLwRhkDNdOdAK3AYpDRyCMjsOVcByH7S1eWlJLjy6MOkmnf5O0Reicdoz0eSW97tivrRUeRwzTa4530CJ0hg2yzcmfBEcOJOzR2l53tcRV46ywsMIM1DvMrfQXexAhSQKgJIH7yyEro2Fl9YS03Ii/tnDj/S4zFjhhmlEe0aL7DEzgLsrMHt1a01+o3OPTNNRYJaFu0n066NfrmxAgySQSDlJ+5nwvyDDFKj4opggyukjKtrIwdmFklZUSMRLZVFt0cORt/ibXGAuV4aaUJcm0gyHNsvZdmRAZXSfNvtU3/8OjJwCrpY379NxvNTuBENUdqzRtxjqSeI7kgxd8F5sjtpcTfSBNkcJU0120fejd/OLBK+ugp1/5twYW26ObI/paEmyOT0jLaBQHmv29DMgiimyPHjjXjHBlGMrxDAOfIkJInSFwQCAmDxCAxSB7DIHkCg+QJDJInMEiewCB5AoPkCQySJ0h4eDcWiu/9kVJAiQPvPOcJfBQET+CzWRBCCCGEEEIIIYQQQgghhBBCCCGEEEIIIYQQQgghhBBCCKHEIyVh4A3UyYFASPhIg2SBQfIEBskT1ylIQg2fmpBYQcKCcMjfoIdOSOMSZP+guBVABEGMTueMqGkKNWVynxCEokk8gty++9W1z7ud2z4clLuaV7/V+cJxIaurbdFutYRu2vT+uK57z4S9qbNJ2KRLEeqaeppSOE3hvlIkGOSNCPK+O5lPj3U/3bJ636PrhO81DuTd/5zNffSBX3/bLQ49Ine8+Oi340P29/P79nb9dDIr664qHxdTeE0SktgPtUvSIBu+2LdrddoB+6FTDtX4k59vfG7tptc+eCTt5CPjECbI4cyPfHvtfb4inTlfOaxWFuyJdEQm9mMmkzTIJTMf3v/gLs1l259+5l7um5pmjgw7JiMOsn7puh1ldEHO72cxBEm7PboUWq2R7NeDR5n2+g2ffDmpOnDwLytFkJT9hK9WFSRIShukgoShIJFUv5tFtOTxfGBu3lqQ1E9cfK0r4+x7OesiC5K+H5oRQK7XDlP2s0ZCS3T1cTObj2zywtVYUSdbDgCiGkv/aEz7pV2ds7bt1c8yulS7H9u3iy7I+f3wKcjrVlsMFXU/JIMrHB79cK+h125qaTiYpTG5O2Pcr3KYwQT+tQASbT8Y5DX6aYHbGzbCFbbrxzz9vfZtj9tdSpPJ7YGFJGfVmoBBrhgInqhXnqLM9TpujOT/jvkfZL8TGkYhYIUYAETxDrJ+UJu9ydqzrS44ZzQ4b+/p3CphBj7svG1aljSfDhCHIMNVrf/8wn0xOhlIXBYxaFugRxbXIGvt9c/6hq21shbQmpWWavvGLl97+8vD031lW+Mf5FIhLZZcr34ot37Lzo8P7XrslWNvjr87MZJubal3H5PFNcj2HfqxMb1dywWZbXLClv2+r9ons/YP2WVRBDk0NjrpeaMMLivxtgLLyHrkImCX9feKRfwakdf4z20nM4f3HIO295fXTIw8uL9ltXvIGedipzz2fvqaHzgKdZYrgnSNaab6fO0uk8s98UXjwSyHw8PzIDc89PK9bc9O1X30w4YfPrG2HNTvEceww9peC12xox2YV+ykRN7PIEi2W2sscFnDpFvtMdvbXZru0SZRr0t55FMZv4MMWjZbKjIxXYLS16+kK3banxmZU+y80XWA9rjN7keNPZhfeYmV55fW2Kq7wz7zmgNiqNv3mReYNtW0Jb10ZUnfAaYtY9oDJRdPOXwybf1fHznDFzsf98rmFjsuC1atFGutVDvcQfxfk/vzyO5PyMoXyGelp18udV/wWzrIOz/7X/+eqIh/+aUfBaU7xWGLnUPugTnFzpazo0kbZIxVa/wXBDp+bGQu7Gwwu38n1gvnoMb+cikhI1AypPnZP7H+bejwbyg9nn3Bv5yu2KEPsmTPAJvu6R9lZYyMEbHA8mtEXv8g/WVckHXkt31k//n7gRGlc0E+DFvIqfP+bnLnTJD+/AKfjKbYkcRw3Bq6uwqKlG7D3hM7ph9XFhUVeDHI0JfWs6+WnuvwN75ERs6cfvESl5v10o+NZ47LXgiMRcd5/+vnz7U+9pQzXLGj7jUvn1fsjNAftxWbHHpTkdvgkZh9JuGERt+MQYYOkpDTlgfXkz/Xv324lBAvV+xsX3/uAUIyyFuHvybcHBl4eV0EKzv1jXOLnR3WmI5b+VU/4KU1dJCnyxgAYJYBh2HF8B+mHKC6bw/73ekyAFYcwcqO2dw4p9jpOulN2mIn+apWroxZCPMCmR2L4Ysd8fwhlTwfqZv0f0eGPtgMO//XJKGPW8Jt0E1/89X/MEgMMj794BuUEymARXszEAbJkyBp7sZK6CAXhPdZhkYwAH4gi/RSxjsYJE9gkDyBQfKElEQCH4mFEEIIIYQQQgghhBBCCCGEEEIIIYQQQnEnSN2sqCxctaZCGH3LuxXGSmnOPfoUSCxLTEUFNputoMi0BBYNAbmsUGCgbHlLTsUySAytuRnFiuKlaVUVVWlLixWFGRUsLAoCciXFGgNly9S0bLj5Mos3q5RymCVX5qRKM2ExaNWZNBWZNmkqCcpJgQiJUnQGU64tQ0GCVung5sonAhPMpxaQfFg8WjW2YjJDJYHoiLjTfrblzZKVeg8sZM3mu2Ax0aXNBHI3xVVSUzgzWWbDTSKsVLGhTlOVUQiLiSjLSDgVEL2iymDLGKWYlDMlp9KUApHTG5eEK2Ur9bC45BNOAURPnjPbkpLJZlxVnDFTcmYUSwttJojMPTkQXoYN4icOdxqzuQKp1EiMUqkgl4Vr0ASur0qgkEWCLSnZFMVVBpiVLShW2CACq/IhElVL4aYgN6ApmyklV5JmsjCPLlCHqoGCaTNlS46AVLEwF8u9CuGolBAZvQoo3KAg0y3Q4ASobgFgxNEGmZlK5krNhHlSUrnXJUBBSNuygggWGqfh5t1VSoiUnmJM3oAgtbVjBnWtRq/p8nU5mg+Oqx2ZHlezqznSIIsUJMAoUKsNYFCrBUYSoCiCuRyEkBygoaRrmXarHBYivzUt5PyYD5GrskHMYg+yurfZNVh7oqe3y76tZqLP7ehWHlEb1J0RBpk5k1oue9V8OZNt5jWGASEmoJFG07IwC0IpKAwxyHIgGhnK+BQpN3COVM1eR+ddbVUwh5wLuBhoyAujbikP+4dr9i0LDVihEaJTqYMQ4vfMvMMeRnsCAEq8THRzpDFQ2rAwHysNXG6vVYAagIYh6pYkgqzJQrksgejojDFvV0/nClnMQd737F/jU4d2r+5a9/fZr4af2BXpJqhmx11Ev5PfTTtLQnGIltRjRFj5L3vnAtZUGcbx/8flwBxsY2McGDAYxEBgQ4bIMCwYC0VERTI1L6UJZUZeMe2iqaVldrHCLNOKSrEes7IbZXfL7Kbd7GL3sstTVvp0r6enM1AObHM759sGB9gvhW2c73se/Pee9/3e837fC3eksxALW+OjkM1vXTqv6r6zh+ivuO9KeiFzsqdde8nK+99LuPWlh566+cvzvc7D+8dsnIhsN34yj/tMAxoM4kYq9BCCRQE3KOMhlqhGH4V8LBan3/hwS5Pixjc+UnXzIX4WF5tztUmLq0nqIRT6kbl5EEZerpvBEyAeW65vQs5dsmTsvd8tmWdc9fCSod0spJaQaG8nwWjRlSxC1KBC7Xkkg07Uu7cPgdZHQEEM8UVIvtHGyUKH2qNoiSEuN1Yv96B4JSHZLivCAaDC4HkkQSeMpRBKNuviMBjQwOR1b9TaqKEFxEWlNDjjTet6QkgYaAjzPJKAJ9ME4bg8iSo0gwZdNAQxTmp9/zmRtPCG1kVsOyEVoELrcSQBD6sTI4AacLot06GMhBBMYbREugh55mkqXCSv3nY2kHDp+YCcRshoQrLhjWwXN8pSP5MyehxJ0EGkEu1EhW9wdkSRbgTQON9r6TCWdm9CIOE01ZC4ec/qx5Y+MedMFS5+5ubrKxaknSV2nnhCSDy84XpVLnW0k+5xJEEHpUa0UfTVtF9mowtFN7kRwOCcbqMjLrHbhUwZM/i688bGbZvhEPL5p1ZPW3DBFMHz8LZmgndMznZbQ304oc7jSIIOFJZjqi1Uzb0p4Y1148+NzVm1+DfrjkcT1y06fc93U3b+tGIHL6mTAIUxoCOmUJgaTs35vwnf4J8U3ZCzxqgo5mEIYeAV18sshNhBRYbHkQQdDEA7CV89+1Lt4pNSXj4jdmbtYzsO1m4amjP7mVvXVH0xNGdVw0mdr+cJ14KWAWEQAEGSHLdfq4rYMOMy3bYrMOS6KPk3Y0qGPN1Dh8pHE6KjMSMzIVpQkepxJHGNWYtugOzNlTtkTzmEPDe26JyXVXNnfzp+8SnD5aM2vaji468I8JgLATyaxjEFDjS4/CwZv7jbarWOx7LzAceXDjRwkJ8BAZAzV94jr7aMfeiCGTPuKgFSZiyLy96x+uEVt8AbJwp2MrlvlMEOvZARhDSCiqkeRxIcR29FOwnFWYpVy5a8tKr5p+8XOYRs3rNu0eQXX9o7XIVZP6ADa4Vz0m7z7MzMjJHgkL0Z+0xJeS2OsXnXE/M/29v2fgj/xJa7iL+le4Pgvimo1i+omTZjcNy2DZyQ2LRl45zBhhLqYOfCsU/QBzsmQsLhnUxnVxpFiBJUxHscSXgvzKIzMlXXbuIacKTs3IEO2Gzw5KkBTD4JgGwnO2lvA9m79cbPDr1Qi2U3yJHQMhQoatlyKPrQKXPvka05tHtKyk6yu4nslQNg08WYg4x3bnOqSwA5fbDTNN6HYEdA1wf+OoqBPMJG8j9iyuCVIVeCZ0IleMocb2YRk/bdmH0PpnwSe2rs5Kry2oQW1axFwNyFciDlky27VDm7ymtzlstzlpcvx3OLTo0FB8NQRq09GuxoKS2ynpDGgFhkB9ZSiCOb6SykY/TkKgCyU2O5P+1C4tMb35wCFH2rcsRQ22cjYWF57XNEkfjk5qq2K8FRKkjIARLL7ND6yHCKYIcfSWGRsjG3qhAPoB4uuLdIVyFnI4e8CyDl8/HArOU5yzGXs8jyH7Ds/td+QMMq3iK7L7NTGE6Lxi9CZhCSDwp44xbnI0e9edvWlm3D5ZCdJz+m7MOx4PDkI2cRjlM2xco2xf797uST5pJbRn1YBY4hxYcmLVflkGhyS3ntqH1/cT/4/r/d3EXtPrLHSz0o5skiJI1mHVlBiDWwCQF9l/mbH3T83bfn36GXxKzMOqfoKusr5EFweIpaXUloGYk24iPBIZOjufZY4KThExG9UUjhmR2L83OsRFBhIUQhah0JHAtAc2YPV5WPH/71rjvf+OWklKfbb4TwsI501bF4vPMnH54EHjHrSPDI5EBHi+uk1FQ5jZBJl50NGUZdedHIZxZccFZ7tujYuvJk/+ZahWVMhSTgWUG/5Dh0wrHm21w1XD5z/PDTl4dfsmZHyoVvdhUypgcyO5dlZnC5nJzbrrvwTJ3qoqX3TT87CrLLT7nizMvMI5+5UPDy41FDuj5Nd6dhmkUfN+fykgjZjPvGxukuf/bOJ65wrCt103RpZwXq6UcWIRNARZnHpCA5QdpbtvOndbUx+/YsiR3+/Ka0q+cnrqva/KCnZHd+DOjQFEJwZufczGkzHl5x7833XHzJ89efMua852cAqC65JG7wtjiu+79QIatTdfoL7ki9o8JSEcctRpdyWaJVg5deft38DVc41pWPWioumBKo55H5hJRStxDSC3/6wZOkAiBDwo8qaACZPFBPPwxGCM7sjLn71qWDDXdOO+u+sYYbDadd/PyMb+SckDmLzjVw3f9pi68uU6F6w1IA3GSOdWV1CdxBUSHAuFQIaAgh4aBCSUi8iOeRrutluMepOK/UCDqMBpGRhryjSGdIZgkcrC4ZM5LWRy5dfXaHjwSqHa/kbd4yZfAcVVdv6Y+aHR0h46gffmgF/pJqXyoE4pWBrRAg8AqVj7z2mSs7fORQcK908yrmtXnL6um6wdMyLz3fr1V0ldQVyml8uOu/mh0+ZuWJ1tHW7PhNSBofaXlqQ4ePHAnHq9XT5rV5y+qSlQssmemn+LOuFVZC0qldZJrQX5LNhlBqXKvoKntFFZ0nH5nUFjqNUR3zlilXVpf4rdKcL4WLAA0R3MjUQNS1RkqkrrUHEgL0ez9gI8REXZ9shf8rzdPS3Ay2QTxZab1ZSOG7sfjoxwAaNNxIC4SjsPhQMNVYD7FEjZPEtjq/749klG5ttYy6ztzGR7t0MQyP96iohmI3VnYv3+gqasdyhONT2rUHqYQoSAy8EamEe0yi90fmQwiSPtVD+BkCGu7KRg0oiOFGjov0945lszZGxL5J33djSlxI96d6ZMOVROrzcmxU57Pk53k59BEnxJDo/zMEpC+ksHN2kE7oHnzQj1Rnndj+NeoseKCsEsIQXhrQC4T0cvIV70zzYygfexCtBhSUKsvglpgJSgM8ojBAKKUKCKQXHGHmDY3jvtoYBlHwgfGAcNBRSZh6OFMv5KxV1iBURzX6D+F2h1Wl0sSr+dxIexioYbT5TEbnCZl8OwMBKCqFza9Av2GqWsknDkQRZSQcJoqRXaWLLlSomVJGrciP5mX1RlkivJPIoL+QaiQOsiAaTaWScERHwleizJZ0hmHSLRlREE6c11VFqj0O/YKwUtZO2jBAHDHmXGubjANqYtBTpJpYT8JHsfmp6NtEpZotNblGLWmnsUyUk6tIY/OVx0amxaAnqWm0xZzwWMJx2ejjMKQzpmwN3Uil0dLznT9yCaNz32WgHzSM4OWws6XhdCMbWX0MJEFetNLYpe+HxmBURuehH8AotflWo5qx1NP8LzCgkM3Vh6NnYYhw+k/g2hcIyzge+Eqta1eQIEGCBAkSJEiQIEGCBAkSJEiQvkNEXP9qUCpVahj4QAxL7DY76U+VRNIktZCFD+iITgNAU0HMCNKD2Oxmn3S04jhWySg57J0D7wxDv8LSmAseH7dpEkiD3x954MMHHvkdwhkxqK4gVDAFdYNGQFLUKxT1oMW1wUKFJPxkUmgxcVAcmiTUgOt+fn9miAhmvv9znZQsPrfRAh8hmq67zSRAKDlOKASxdj2vonAtB0pGSbPdBgo8bSOzS6DI7/dicpzi3wXZ4/oQKtwqmVywfuD6UEFwFxYkw3fYwlT4TJwNnbFZ0NMMe4TwPCLEaupm0gk5s87V1YYe/fnPHKET5Pz589FQn51ttLVmAms1KUxWtqwmvO9Y5DsPEJ4H3hEQ5/wcQsnPziLUTRQ/ycQ6+IJ5gl2pTMzWZ4Zl6rMrK7Wmsow+4iMPfEh4PjwArwx6P8QNX7d/m+v4sj/EPe8PctKRn2nLfPfz3d7qOosPSpYqCisjUM/aLR2WVZmvMIACtgI8eglErU4WSXlnPUhaQw4ueO2h07/mXpe/uJ9T0+u9dQRvj5uPfPn1itbbt29v3T5v/+KbDzZ9XfpH69bWkFkfr5j1UFNr22veJkeADr3dGIY2UhWdOuWFGU16iEdq60jRPrIgxA2Lt288+PHKXx7auqZ15fbteya3rpke4koBOhPK/+CL/SFrWr/4oulw7ovPHX5lTZP1yENrmn7ds//g42UNh9ftanvNXx0KGuKtiojOx/4qUnmHZ1VEQixmqWV2xEatoe6EfOPxf1+7N6T53q0Hv9xYvmUj9zWEx70CyUf5Hzxn3NOg3nhp85HDieu2qMsa1h3eOPlI4saQho9tzR8b97S95jlKE7vqlGZ0wWJn63lVlGbxSpIKh/yReqnkWp3WkTRClr8S8tyRL1/a/tHW/X+0lrd+t3/fvV6FLHAXNB3cKCRoKqDZjeB23xA6KEyHaNRKu82ulIB/pMjs8EK6sp/Xg9nvVcj1f4ZQ8ud6iIVRwx25TCdVKqm2pKb6vKG0NJfJYo1qI5vF5Jaao/yUa6Xxke419eYjB+bQCpkzULSOWfBOFo2SBPSEp2cVKhsLbTYmLd2gN6SnMTZbYWNjYVZNuO9PPyiiVsqMwPoQasRaZJ4aQlCnd6OQFrVWy8aZ4+FMvTmO1WrVFgQMfh1Jges6cmAoNQMDc1IvCs3dJGSqTcmmp3q6IJ1V2lJBQTJ4ApXZeX2E0y2algKIIV5JcaZsIIWssGrTNPCGJldrraAIXcET8Fyr77doAdCs8nQKeIXxcQNnfCJbIVRxNjEygEIOG0j79EPILXpLa0e45CHVJwK9Qozo+kBbZJoyDsKJU6ZRCClcSX88jzxw1N1lzS9s/zqkYWPryi2Lj7RyGVh3HD1AcZ6sMDJNARYycQLEYTMGTkgMq3tdbIXA6y4VAmvdPvo42LSi6eCK1jOampq3N32c69YoJ66FF+i7ixgNARXSGgexGKwUQnZrzc4/r7uzyCMrmh8/fPiFxU3NR7YcfsFtzPQPRKAIwzGGvGF9WwUePt5YzX8cpgikkGwFxKNXB0ZI+nnooyb6UIfviVc0aXz85l1yp8bb/Cu+E17AhMwqAw0TbBIXMqmAxtcWJEEEfBPZWbMB2XmqBkKqEq5aR1Y1k707181+tHjSbFnn9ohMWcCEjLCDDnuqtIVEUt3roteidUmgCnXaG6yjaPfIhJbpxTuKvo05NXbfItnnO2T7TuosZKYpYEIaM0CH2ShxIYF/Jh59f6bwkOnoRKH+0bVJpaMHouyS22uBU6ffIC9aGONo61y0UI5ZVZ2FhHYqhZCUnWe+GZowB+2cnnabHCeCSF5IrD3AhU2CQ6YDayGOGj4RXv6tivs7/1v5qE+mLzwu5KhPYtHVIsFkB0jIjHw4U11SdNPWC7YNniNPOAfD5mef3/4GzpgyJS8kxTx0LhKYTLTXTJF9+lfxqoQb5Nyfv9/dFIuGQx+8G8N9F+wk6YUsdZ349CkJN60u3f7RpbGckGfeVXpP+xs4U2aAUAqkJYCHeejbvcgiwaFRAU4fdiGd7T6LXPbsilMGr7i35joVzrA8dcbGZ9vfBC2SJuVGn9Lz3UdCdjJwMmT8spZ70zt9ZIDnMWVSnO0uvaiV7bUC+GseRRjEEhYoi0SqHXRopb6O7G6L3Gq1jseo0+Ro/3IMmbybLBK2CaCAG9Z7BQiIj9y864n5n+11LB2RsrTTx1XojCVgFgmo9RCPJasXCxCIqDWhZShQ1HJ3sZWsShguv33SV1UpO8nuBcW7hwY4auWxGii2OfRmASjm8dp5a26bKX4yvaUkgUsJcLIWtdy+HM8tmlzlQ/8tAnEYbVJ6Htl75qnpJGTRtyog4avpNziSdAtzyK+JS35xaMgLSZHZ0UIkeUoxRmlQ5vVuATzMQ5trRcrn44FZy4tahjqSdJyso95r+AEND7Zl03kGTIVwFJXREEmkkdVDGHrWqOnlAvhtHlMEOhhSfGjSclVC8V+TFiUslK+5pnjRqO//2x27ePdQ2mKPdJamE6LOqs2NhDfic7VWXe8XIBT+d5JAfOSxdMqyhfL2ZYfGlxaVYeMAROsgmnCbks3zWNeaxyonhIOnv+daT7AqlH06G06IrRDgryWUleb2AazBHOVmM4iBHWBX6/uIAKFAj+R2pipE95fVRYOOqdltWz1sWWW5eaX60rzcsqz2zSDZU3v+H05q88BgDFQT54x8XlB66s2GNMamNmYZ1TYmzWCOl8g/nNTmAUyBqmsd12Hr0TpIBmkJkIzQZPgJvRXCEbHbgk2X1hkCDpL9KACS/TFPcmgB/IVCzN4PuseWumhIgmSHAEj2iwDcXH4g1FeLpDsEh2iEX9rzffXdEIpQDBrhFwH8ZNoDR8NvmAuFLyeEotCjDYm5Sc6S1tb5ZSJ/WVIB/Ei6GkJga8SkdBxI7KidNkuqWwt/sB5SpDIL3lHnikvpcEjPTSavH4S+TKV3m2RzxaZ0IEU3WYC+TXqhN21qRKd0IEk32dcxK3UeOwZkiM/fStRN9nUiFdZMuCfTqtBAdEpHqm6y76M3Gd1JMDXRVAFAdEpHsm6yH2BQ5DOZXY2RyVfEUVWiB91kj5JRZtIyTLo+o723+gATkwFxMPBA0CS7kanZZawin/uPZbKnIkiQIEGCBAkSJEiQIEGCBAkSJEiQIP2a0cnJgwoKBg4sKBiUnDwaQXojSSMGDXTqnzBoRBKC9C5GTwzlqHs1ecTo0UlJo0ePSH61zvHJRAq7JG6AL+gKdfAHEYyRiUBfZthEh2YHhjl9eqDt42GihfR34UlhRiH8gNpelllml0z3MP+TNIi7jSYnuf1RMne7HZTUw0LqtGb4CoOKaDiIrkAfZXS7Vp5UHk0hpCYjfKQmJn6k70IyfA8Tesjx03FqWPRN/mfv/F2lBoI4Pntf8AcqiKKFXlAU1FXBSCw8MYUKEpuojV46C8XKQmzVQrA7sfGlEuzsTOP9BZaHhXBobWF1jaiNYKM5Nhe9HzGJ0eys+3nwjsd7GR77ZXZnNrOzgZo9C+fdoLqQ9/beeXjpyfrTtYRsviRQiOPbKWXDSTISF3DmfDAM5/xzBLh1hr27qSEldhA14JGXDfbIrgcZ0IyB40HhOYNfvNbrtrdG7j60u5E10uCaNA9yppev8shhkgyRErv+TGEJrzUhd+6m3TsbiVqvHrxqZtTqQnZn8SmAyfueUPTeTwA4s19LuG3lkeumXw2wd8uBC3vJQILcHwMJfInEL0RfkE+8AyCgqhyjpbC3oxlhro0LJJFYIEoAN18nQ6rIZVoOdzt60ZVwZiHPsCeW0svDnBFkl6qxn1bA3I4atpHnkAa46Gd3EGEYiRVEQ2T3DfXhUjUu0AqY20kZuPJj5zXal9IH/Cx0nYjVRBN4c0+UZnWEyNsOUdiPp3fHaiDlzL9cDEUR0RCj7C9d3gI0ZWfs3fjaUWRSbjxx7eJD+veE2YoXpPNqIVEWFPkSIWsBmrETxN7LV52Up3c+3Mmk3PNw86779O/x4GQhT0/8hl4muoM+VeEqrYStnW/y85Gbbzpraw8erD149WIt/f67Cdbpj2ke1IZ+pgtk2iTityRwZk9xzv8asOPdONLpnPv06sra7Vs/JDz3Q8jnt394pRejkPgvCRko3/KBSPyWCNJXC2vAOf+73JBHduao4ZHFOBVyj3fq84sowRcV5ryDyzn/29/UGnm9QMZ/2w5TwlefkShBhFg5sKQKHKXVcLazGLW2JWSIG2oHdSJKMcGAUm4gZBttMsojQSVxMFKf70Up3qv/dwSHsQDbuOzsoGq/RQ89UYoevBqNGg9RAYztZHutsUOKtoR0VfQJiJKoxTGoFO2cpQIY21kc77YMewirCgm1uHo88z9e7yOrCtnF8K8KeZgKYGxHsfHgwbvnH20lRRtCqh2aEIkoSZJJLxkL0LCQdOvZ2yePT5GiHSHpXwi5jwpgbCdj/SbKMXlq1S3anNqxwY4VUj8h/yT9YCyAeULaDQFjhKy/Rcc4/ztmnJC1N81jhIzThsPGCfkHr7E4C8BFSAeOXi+WdZsSuUyt/cLaqIZKPTgHKVyCnTHGVEAzxVec3yNuYyIkxRW8t2Y5JGsBcju63RBrC5RbFHKcLmXtU+/IAO+iqaMND2E8pvapcIinnz/BuYwxt2PWbXx1jtUxLiz+Tw66YvVB1/5PB12Z539sSj3+xtHzUX70fMC9aOosmUnVZhDso00jW7OUac+Stxr0JVz+Ahgr5FzDpBhTkgTLGiYZIIC5Qi62MJOYIhdbmBmQ/x0lc1lsKkhhSItNBY3I//aTwZRr82lG/mdmHlmu8a7vAnJgiCcZ7ZHNt8LOOTP3syl2tKWoOb3rt/8iVzc7GrPkuogYqbqhDgOnmx2tWX6Bix4Dp5sd7bFXKlksFovFYrFYLBaLxWKxWCwWi8VisXxn725+XYjCOI7/HkmHakbrZbx1YUK1EkUsxGuICk1TIiEssBFCSFggQiQsbFhYYGEh3LARK0JCYicSInIJsbAQseMfsJRor7ZPVG7NaR/TM+ec7+K67dSofO7czrmdew4wW/RvyJeZju7S+B+FNallDT0P8edNTkGt1OQy4mtx/VwGnbZW0ejJDMjnBY3l8YMaBs9fMh2xVyFiyYiORB5iatv31fVzW5/OWv940eXcvVcfjtGDi1N2Hflxdh2ECwM0C1IYsIl+dgX5IWKKHVkysiNRBbGUvrXm4LXqiVOl4y9zb+rbw1v7Ty0+nT7/5MHBOoSrbUSzShmDNSk7F8BcivegPDSZWFLBkSYfQhylX+YO1qvPw93PqplN10ZHHu0/tamOcPeMgwUIVyyhWamIwZq/CM2mLUOMsUtK5PHyHXs1ur564uzT9+8+n72/4eanXW9HRq+ePjxj8Rikjkek4heEvKRmjqVyiU9Q05PmVXMA1gKtj5zwa+TA/7Vl09SOSHlJrRzzRJQHuBBdLS8uhGi1oFKqBGUM2PTsFgBbslMRc6yjkWOJmk1Ej4iywQII5lEzD4MWrqIVtCpE7LFP/4/zSbkAPSpTpLKtP9FIo0kKpk4TOBwlJNUfRdiTQ3oSFCISOCKp9a+Ppc+veynsxycuIIX8CEbq2oSf33Irr6PRmUJESBDGr0hERYwTv0YyJHT6dS+F/RA4gkIUQUn9EYS99HDOgcX5/MjXj9u+b9yHf0a9n/jE+RPx7xgSOq2PX1PxSB+ftHZ2broMJDspOjLk+lsjVx6tmXB9b+HLrmM78c9IQIAh9ZqkYJoSZOrklYWlzRnAF4BkKbWtDFm4sPr0y8a319uFd7vuHI34RMhBolN+pgQkW6ltY0gc2Xn31aUbm15vejG6PrKBg2w3Mw8RSNZSduS9pjP8MdoTIZ0gh7DOfkDtfAhBspeKY58cfN4daAQpOWmeuocYJIupOoIGsNAIUmwcGQukoiTfZz6k2DgyFkg1Sb7HAkixKbqGDsluf922AVLsrHX4kCzXdctBJgyS7f743A5IselHdIAE6/FnlkCKTfWsBWTHb27H0RZIU8aRXZLUdrQGUmxZPU0gxyTZ0UEmFrIhyY4WQYqts68NJJa2IJfCJkizzlotPiKNg7T1NdI0SGvPWg2DbI8jZ7pxZKLHkRb/ZMeo4YfNP2s1CbJtF6JZuKN1yw5Ig7618jGIlqRN70eac7LDjuhIWnSFgDHvR7IjwJL2XLNjCuSfjixpzVV0hkCy2Dj3Gw9pxsVX43ulfm/ZkTId0ojLITuOPbaFhkOacIFyL0cg1d5qNqQB40h2RG9JoyGTf/FVl2MvSZMhE3/W2qXUW9JBagvJ40dEkXSQgvvxqc98gXl2jIVM9jr7fcx8ZSpkolf1FpmLzqe+8zWCTPI6+7rODumOSLPma40MqdX6+NH3M/wZlGdDh5L/xvKw5zT3oEUOspPX1yoDZeiRg+TKmq/7EQnSlYCVeBykBdFYDtLlcrlcLpfL5XL9Yu/OY1uM4ziOf38Jncdja9GhJuroEEVSmZaRDkVjnVistVDHphL3NTMT933MMSZxlblvccXcV5gjYgkhmWtuIsQ/CBJEnyp1tXs6uj3q80rWLk+WX5fnvd+eX9tnewAAAAAAgor9P69Hj9w0gr5RDyci1QgqW6ps65DuSvKya0ockv6Td4hUiw4uSdFPMOrbDlXoJ4xwPj3dfeWGcfV7UZlIXBjPJXZsY0g3JQ3YVK0N6avNdG+0axKOI6Q/3D7lmgs5b22TTBm3hmzPXX04J1NjXXrVcJXKwqCLzqnDhqxLF0IOujY6a1vBoSKLsNF+4a0RIf1Rm/n+FxwnRu10LlPl5PW5n+rIU6rTHJxZQaWPi1NSa/2E/KlCyLzdlLd7SpNCjbBxEHuOX63+bbm5eJNj+qqdzmP5xnl7L9vOjT4zJ9fBLVJQGYjrlbCwyGLIFkLaLRR3+JjCrhE22m13dyOkfxy5VCCT7euV8Tny0CVTKdNuLdyT+b7RwyWuxU7m+8Ik1Z3ziy8KG+2aW8cUCClGLQX9jMlZaaaspyPiWn/3g1TV86MlbCSsWn9PxsRpUVpPw6Ij5Yx8Qcg/whhL9nuinuzv/VFSAzljCBkkuuQSnHHJKBDeiS+aDCEDF/yQnjvMyF9IKWRCR956hCev2fGz43+7m3GM/JWEQhrSK99dRl5cgbJA6XM319ORB0K6lXnIkYU9hpCT9bAZ0rXsIk/q/exsG2uPyIuV45RxvkJ6IaSbBEJ+zOBiNmyNVW1NTa8shDNNpWEZW3ol3FEipHgSCKl/xq6MZK+jxnlCrtlDRNbCllkIGQAJhIyJVd9JfapQmzd8CXnpuWtG3nDNyFiEFE8CIdc/bjBVMe9xjwxVtjtkwrNPZ5VF71v2mLVauRohRZJASOIqCDc8fVPV8yFASHGkEFJKuxkhETK0iAuZrAvVkHGpL3j6TkIKuRiyefrHiAmZzOQsNEN2XVqw7ThtXxjfs3xMX1KP6qNwvozXt00xfOg04h9L6Q3pLyMLzZCDLu7KSn1qurYu23S24Y1l+22ZSda5G7bm3lvSyla0hwKiNY7/Ln0YuQyIJX9KJyTz8Q5UeAiF5AqUFJeaPvnhzb6mIWTa06Xe4gyDw/UpGbJJm0QB0NfL10zqOWHH6QlN+urrrUzrYdyys1fm7R0K8q2UQn67T2YCqS5F/ihkXC+uIDV9XRv91s1JdMp2p412iMGhPUJTlqbzJlEhKzes7DnrNNNiPnWxa9qRhBeJuasPmR/NUg3O271eQ76Vdkii5BANSdasxVmp2das/CNWFnUsvujN4rMbWhnfRhxLzeaFiVmsCNaNRXjOOrWYJ3Z9sMlB5ukX7m8zmzQ0o7tSK62Qwqo1hEI2jGga0ZDcON59W5VMSZznRQ3vna4+FaMpc5E3JaLMMzc0ZufNfbkPD+bk7c23zbtwP9824GtImYx8KMWQEn+WF/gjNJQLez+MfjB5MP2CyTtEFzMfv4j6epIpxxtyeM9Zp65bLxn7NSVCinwE/7s/gool9G5AvlVmX9E33Az6jv+UCPlnj9CUCboxUeQt/Eztr2PImRiR4fQDhCy9GSmPrC9yRnphRpbqMXJMGBVL1yCaxBwj5VFln/F/DElhrlVrGIkhdtXqB1atknkEf6LYGBZFkoCQfyaMJAIhQwRChgiEDBEIGSIQMkQgZIgoo5AJKQj5b4ecGJ3CJc7knS/LDacnirFd24R1HcEj5L8X8mNW3yLbsIvWuc7nlKd8NTWVzSrag5Di1ZFISLtGdefkwakGhymJBijjlO7TnBBSjAND42MWpD08lKJO0U9YUXdofNmGtCQUxKo6ukPuE0Km8yaEFGWNZX2GM+PohhxVjmmIKcM6q4xnJGW+LrSpWm1qFZGlXK00CKc5IaQYA5T2lYkjzAaHytFf01+jcpT5qpXjScD//F4PQvogk30JOXLnwWXzci/nz9JqtFII6fvdV4T0vV+8U4CXwmKnuG8ZIX/dJxJ6+sEiqDxjNSic1aPGrKmwJZqqsyrUjMmJOrC61IS1pEqMtQhHyB+ER7anKFapDqtOVVhYDdaS2rGaxHRUj1WjipHUltWnpnKqzTAjJU4iM/ILHCODn5K5+QsZPFi1/v1dI4GQeB4ZFOwfuTIKQoYIhAwR/8gvDgAAAAAAAAAAAAAAAAAAAAAAAAAAAAAAAAAAAAAAAAAAD63l++vjT+5FRIacELgW1H9mcvtCy0D9g52x0xtdrTw92bZm6ob943JbVtlIAbOe3NZ9R1oP40DantY5t+1BI4lSiyep4XhpjSMCty/WaTEPSxq7/JzCbuy3LtuqydTol17ljiooUHbNsAxnkvm0mR+wK8MwN+EFT2I8iSWpmR8rrXFEUJ9TaI3mcg33G838uwtzR7+wavJ6qUc7OLOiJP+J+UriYLPaTPt2aQyih+gZT1LTM15a44gxzH19/Ln5y+7e/pA2btqHtPRH4+ZsCiBkfZk35OQzB43zLPNub030hAwSXTL50rqWQuxeTuHGDtf3pd8Kr0Yiyfx+ZdNAxyk5zn3TWn1UIXzuxou/jnC0rvqvB4XWFADZmDEscC3oR+qYmok7Fk05ObpuzTYkBje+Wd0+o5q3NdLvMIqKInH8fiVj8pYBjPNX9C7Jlb2r66JJhKDPSCFkzPXBUxaOXjtTZMiYmrnNxjev9tuQ4TKq1iKSiRVJPrRgLhUDHUc8GfOS+yLmWvvhDWSsNnWrSM2ZjCJYpXIsgvxuCRpuEv1NsvCoan9jJiVHtgxknGASOjYI5oxUx3RM3DG7bv1RJ2Op5GSsxGTkl/hjmzTG8YXJO0SLOEaWnHpm15ihzcbWHLVQQRA8uvrFr1oBAAAAAAAAAAAAAAAAAAAAAAAA4DN7d8+aVhTHcfz/h3DEh4vBcB9w0BhRO9gGQy4IKaVDERzEIIVsJTiETC1pEYfSEgodTZZOmVLo1L6BLtn7Bvp+Ik4hmMu5+IDi9wNnOHD5DefcP2f8AQAAAAAAAAAAAAAAAAAAAAAAAAAAAAAAAAAAAMBqccqyBFVZG4979od3aclIcmd79u7fTDItUxgjMQwT6eSRjD0K0yX0rBdUtTWXemQzWTFiolj17Be9i9urz8feTb5//CE9Uxt3sV/8ObocTfkj1NiHXL/veL9ev7j66F28kgc0qtX5pCGxPJ9eSa47GmQlmuURqWi8mAh2Pfv9L90/599u8u++nm9Z9+Ob/Woh3B0EbqVZyrX3/PGmF7i/87fXhyPjObXUWS8RHvj1dq7UrLjBIHStO8sP797++/E//3dY+DTSh0QqjiNThRpfOGUgG6qa0lhSznya2N0F9uyb8ZfxHD11W2b2EC03GuVFT2SgmciJtD8iFY0XE1NSls8YmQPHr8iitbKNbF7mwUzW4iRr36VzKpYuX8qmacl6SHZPg63uttjpbN5FAgAAAAAAAAAAAAAAAAAAAAAAAAAAAAAAAAAAAAAAAAAAAAAAAAAAAAAAANhUjpHZeZEp9rw3J6vV+bxGNKqt3L5gPyLFXjOrWZ3XVRpd+6s0+9VCuDsI3EqzlGvv+eNNL3BrjufX677n1FJnvUR44NfbuVKzoiKO8/Rh2HCfiUSkWOekdCK0SLHjygZZsYlUJpI3crPfSAAAAAAAAAAA7tuDAxIAAAAAQf9f9yNUAAAAAAAAAAAAAADYCV6PpdZDxNdqAAAAAElFTkSuQmCC;" vertex="1" parent="1">
                        <mxGeometry x="20" width="456" height="827" as="geometry"/>
                    </mxCell>
                </object>
            </root>
        </mxGraphModel>
    </diagram>
</mxfile>